<svg height="18" viewBox="0 0 21 18" width="21" xmlns="http://www.w3.org/2000/svg"><g style="stroke:#2c2c96;stroke-width:1.5;fill:none;fill-rule:evenodd;stroke-linecap:round;stroke-linejoin:round" transform="translate(1 1)"><path d="m15.3917 9.4191-6.779-2.087 2.087 6.779c.142.46.757.543 1.015.137l.827-1.301 2.705 2.704c.465.465 1.22.465 1.685 0s.465-1.22 0-1.685l-2.704-2.705 1.301-.827c.406-.258.323-.873-.137-1.015z"/><path d="m8.6131 16h-6.613c-1.105 0-2-.895-2-2v-12c0-1.105.895-2 2-2h14.561c1.105 0 2 .895 2 2v10.018"/><path d="m0 3.7601h18.561"/></g></svg>