<svg height="19" viewBox="0 0 20 19" width="20" xmlns="http://www.w3.org/2000/svg"><path d="m13.3028978 3.93303994 1.1845916 3.59404703c.1833798.55556635.7103334.93252072 1.3036831.93252072h3.8362218c1.326869 0 1.8791164 1.67292971.805185 2.44137661l-3.1027025 2.2233039c-.4805816.3437242-.6808239.9522511-.4974441 1.5088559l1.1845916 3.594047c.4099698 1.2440533-1.0349368 2.2773029-2.1078142 1.5088559l-3.1037564-2.2212269c-.4805817-.3447627-1.1308423-.3447627-1.611424 0l-3.10270247 2.2212269c-1.07393133.768447-2.51883796-.2648026-2.1088681-1.5088559l1.18564548-3.594047c.18337984-.5566048-.01791642-1.1651317-.49744415-1.5088559l-3.1037564-2.2233039c-1.07287742-.7684469-.52168401-2.44137661.80623893-2.44137661h3.83622183c.5933497 0 1.11924934-.37695437 1.30262918-.93252072l1.1845916-3.59404703c.4099698-1.24405325 2.1963424-1.24405325 2.6063122 0z" fill="none" stroke="#2c2c96" stroke-linecap="round" stroke-linejoin="round" stroke-width="1.5" transform="translate(-2 -2)"/></svg>