<svg height="19" viewBox="0 0 22 19" width="22" xmlns="http://www.w3.org/2000/svg"><g style="stroke:#2c2c96;stroke-width:1.5;fill:none;fill-rule:evenodd;stroke-linecap:round;stroke-linejoin:round" transform="translate(1.7 1)"><path d="m15.6038175.56625.43 1.323c.11.338.424.567.779.567h1.392c.794 0 1.124 1.015.482 1.482l-1.126.818c-.287.209-.407.579-.298.916l.43 1.324c.246.755-.618 1.382-1.26.916l-1.127-.819c-.287-.208-.676-.208-.963 0l-1.126.819c-.642.466-1.506-.161-1.261-.916l.43-1.324c.11-.337-.01-.707-.297-.916l-1.127-.818c-.642-.467-.312-1.482.482-1.482h1.392c.355 0 .67-.229.78-.567l.43-1.323c.245-.755 1.313-.755 1.558 0z"/><path d="m16.8909175 10.06265v2.859h-15.53899997v-8.479c0-1.104.896-2 2-2h5.389"/><path d="m16.8909175 13.13015 1.126 1.812c.616.992-.098 2.276-1.266 2.276h-7.62899997-7.63c-1.168 0-1.882-1.284-1.265-2.276l1.125-1.812"/></g></svg>