<svg height="18" viewBox="0 0 18 18" width="18" xmlns="http://www.w3.org/2000/svg"><g style="stroke:#2c2c96;stroke-width:1.5;fill:none;fill-rule:evenodd;stroke-linecap:round;stroke-linejoin:round" transform="translate(-3 -3)"><path d="m12 13.614v-1.362c0-.525.273-1.008.719-1.285.634-.393 1.459-1.048 1.459-1.788 0-1.203-.975-2.179-2.178-2.179s-2.178.976-2.178 2.179"/><path d="m12.3142 16.0483c0 .174-.141.314-.314.314-.174 0-.314-.14-.314-.314"/><path d="m17.497 20h-10.994c-1.382 0-2.503-1.121-2.503-2.503v-10.994c0-1.382 1.121-2.503 2.503-2.503h10.994c1.382 0 2.503 1.121 2.503 2.503v10.994c0 1.382-1.121 2.503-2.503 2.503z"/></g></svg>