<svg height="24" viewBox="0 0 24 24" width="24" xmlns="http://www.w3.org/2000/svg"><g fill="none" fill-rule="evenodd" stroke="#2c2c96" stroke-linecap="round" stroke-linejoin="round" transform="translate(2 4)"><path d="m18 3v8.1640571c0 1.0139633-.8219796 1.8359429-1.8359429 1.8359429h-12.32811424c-1.01396324 0-1.83594286-.8219796-1.83594286-1.8359429v-8.1640571z" stroke-width="1.376957"/><path d="m18.5 0h-17c-.82842712 0-1.5.67157288-1.5 1.5s.67157288 1.5 1.5 1.5h17c.8284271 0 1.5-.67157288 1.5-1.5s-.6715729-1.5-1.5-1.5z" stroke-width="1.376957"/><g stroke-width="1.26"><path d="m11.8 16.75c0 .6900631-.559444 1.25-1.25 1.25-.69006309 0-1.25-.5599369-1.25-1.25 0-.690556.55993691-1.25 1.25-1.25.690556 0 1.25.559444 1.25 1.25z"/><path d="m10.5 13v1.9260101"/></g></g></svg>