<svg height="19" viewBox="0 0 20 19" width="20" xmlns="http://www.w3.org/2000/svg"><g style="stroke:#2c2c96;stroke-width:1.5;fill:none;fill-rule:evenodd;stroke-linecap:round;stroke-linejoin:round" transform="translate(1 1)"><path d="m8.9756 3.765c0-2.079-1.686-3.765-3.765-3.765s-3.764 1.686-3.764 3.765 1.685 3.765 3.764 3.765 3.765-1.686 3.765-3.765z"/><path d="m10.422 16.4888-.654-6.611c-.132-1.332-1.253-2.348-2.593-2.348h-1.964-1.965c-1.339 0-2.46 1.016-2.592 2.348l-.654 6.611"/><path d="m16.7703 6.4853c0-2.079-1.686-3.765-3.765-3.765s-3.764 1.686-3.764 3.765 1.685 3.765 3.764 3.765 3.765-1.686 3.765-3.765z"/><path d="m17.9475 16.4888-.385-3.89c-.132-1.333-1.253-2.349-2.592-2.349h-1.965-2.503"/></g></svg>