<svg height="21" viewBox="0 0 17 21" width="17" xmlns="http://www.w3.org/2000/svg"><g style="stroke:#2c2c96;stroke-width:1.5;fill:none;fill-rule:evenodd;stroke-linecap:round;stroke-linejoin:round" transform="translate(-3 -1)"><path d="m15.1125 9.471c0 .803-.651 1.454-1.454 1.454s-1.453-.651-1.453-1.454.65-1.454 1.453-1.454 1.454.651 1.454 1.454z"/><path d="m8.0512 4.0395c0 .803-.651 1.454-1.454 1.454s-1.453-.651-1.453-1.454.65-1.454 1.453-1.454 1.454.651 1.454 1.454z"/><path d="m7.2536 15.8406c0 .803-.651 1.454-1.454 1.454s-1.453-.651-1.453-1.454.65-1.454 1.453-1.454 1.454.651 1.454 1.454z"/><path d="m6.5975 5.4931v3.58427025c0 .97600185.35684227 1.91832775 1.0033258 2.64951765l1.3743484 1.5544242c.64648353.7311899 1.0033258 1.6735158 1.0033258 2.6495177v4.8032702"/><path d="m13.6588 10.9246v9.81"/><path d="m5.789 17.2833v3.451"/><path d="m19.2467 15.8406c0 .803-.651 1.454-1.454 1.454s-1.453-.651-1.453-1.454.65-1.454 1.453-1.454 1.454.651 1.454 1.454z"/><path d="m17.782 17.2833v3.451"/></g></svg>