<svg height="15" viewBox="0 0 21 15" width="21" xmlns="http://www.w3.org/2000/svg"><g style="stroke:#2c2c96;stroke-width:1.5;fill:none;fill-rule:evenodd;stroke-linecap:round;stroke-linejoin:round" transform="translate(1 1)"><path d="m6.6665.3645-5.957 1.767c-.946.281-.946 1.373 0 1.653l5.957 1.768c1.639.486 3.435.486 5.074 0l5.957-1.768c.946-.28.946-1.372 0-1.653l-5.957-1.767c-1.639-.486-3.435-.486-5.074 0z"/><path d="m5.0027 5.3352s-1.91 1.258-2.271 4.735c-.07.676.327 1.34.968 1.566 3.561 1.258 7.447 1.258 11.008 0 .64-.226 1.038-.89.968-1.566-.362-3.477-2.271-4.735-2.271-4.735"/></g></svg>