<svg height="21" viewBox="0 0 16 21" width="16" xmlns="http://www.w3.org/2000/svg"><g style="stroke:#2c2c96;stroke-width:1.5;fill:none;fill-rule:evenodd;stroke-linecap:round;stroke-linejoin:round" transform="translate(1 1)"><path d="m11.332 19.0581484-9.2-1.128c-1.217-.149-2.132-1.183-2.132-2.409v-10.81800004c0-1.458 1.276-2.587 2.723-2.409l9.2 1.129c1.217.149 2.132 1.183 2.132 2.409v10.81700004c0 1.458-1.276 2.586-2.723 2.409z"/><path d="m4.7436 11.649848 4.45.546"/><path d="m3.8164 13.3305484 2.431-5.59800004c.27-.621 1.156-.604 1.401.027l2.451 6.31600004"/><path d="m10.4474 3.24184836v-1.736c0-1.034-1.019-1.76-1.996-1.422l-6.521 2.253"/></g></svg>