<svg height="18" viewBox="0 0 22 18" width="22" xmlns="http://www.w3.org/2000/svg"><g style="stroke:#2c2c96;stroke-width:1.5;fill:none;fill-rule:evenodd;stroke-linecap:round;stroke-linejoin:round" transform="translate(1 1)"><path d="m20.2066 10.9646v-3.915c0-1.152-.934-2.086-2.087-2.086h-7.649c-1.152 0-2.087.934-2.087 2.086v3.915c0 1.152.935 2.086 2.087 2.086h5.226c.983 0 1.913.445 2.531 1.209l1.089 1.349c.297.367.89.158.89-.314z"/><path d="m8.384 8.088h-3.874c-.983 0-1.913.444-2.531 1.209l-1.089 1.349c-.297.367-.89.157-.89-.315v-4.329-3.915c0-1.153.934-2.087 2.087-2.087h7.649c1.152 0 2.087.934 2.087 2.087v2.876"/></g></svg>