<svg height="17" viewBox="0 0 24 17" width="24" xmlns="http://www.w3.org/2000/svg"><g style="stroke:#2c2c96;stroke-width:1.5;fill:none;fill-rule:evenodd;stroke-linecap:round;stroke-linejoin:round" transform="translate(1.3 1)"><path d="m13.9738 3.277c0-1.81-1.467-3.277-3.277-3.277-1.809 0-3.276 1.467-3.276 3.277s1.467 3.277 3.276 3.277c1.81 0 3.277-1.467 3.277-3.277z"/><path d="m15.2327 14.3515-.569-5.754c-.115-1.16-1.091-2.044-2.257-2.044h-1.71-1.709c-1.166 0-2.142.884-2.257 2.044l-.569 5.754"/><path d="m20.3697 5.6446c0-1.81-1.467-3.277-3.277-3.277-1.809 0-3.276 1.467-3.276 3.277s1.467 3.277 3.276 3.277c1.81 0 3.277-1.467 3.277-3.277z"/><path d="m21.3943 14.3515-.335-3.386c-.115-1.16-1.091-2.044-2.256-2.044h-1.71-2.179"/><path d="m1.0246 5.6446c0-1.81 1.467-3.277 3.277-3.277 1.809 0 3.276 1.467 3.276 3.277s-1.467 3.277-3.276 3.277c-1.81 0-3.277-1.467-3.277-3.277z"/><path d="m0 14.3515.335-3.386c.115-1.16 1.091-2.044 2.256-2.044h1.71 2.179"/></g></svg>