<svg height="23" viewBox="0 0 75 23" width="75" xmlns="http://www.w3.org/2000/svg"><path d="m11.1750743 21.5050863c5.6054925 3.2614395 12.536457 5.2235257 19.6959487 5.2235257 4.828491 0 10.140162-.9990007 15.0241568-3.0720847.7378222-.3134138 1.354851.4831755.6333532 1.0185862-4.3583767 3.212469-10.6755787 4.9264373-16.114569 4.9264373-7.6263457 0-14.4920122-2.8207028-19.6861545-7.5120803-.408087-.3689137-.0424425-.8716762.4472648-.5843842zm39.0262484-.3199403c.4766453.5909123-.1240582 4.688115-2.464851 6.6436695-.3591172.3003518-.7019107.1403835-.5419395-.2579115.5256165-1.3124107 1.7041755-4.2539055 1.1459108-4.9688752-.5550015-.711705-3.6825855-.3362648-5.0864063-.1697648-.4276777.052236-.492969-.319941-.1077367-.5876482 2.4909682-1.7531445 6.5783767-1.247115 7.0550227-.6594698zm8.2205198-14.07086497c3.444261 0 5.308404 2.95782017 5.308404 6.71875767 0 3.6336126-2.0600287 6.5163441-5.308404 6.5163441-3.3822322 0-5.223525-2.95782-5.223525-6.6436679 0-3.70870222 1.8641453-6.59143387 5.223525-6.59143387zm-22.412181-.11426475c1.1295877 0 2.6052322.30035325 3.4964962 1.15570455 1.0731063 1.00177371 1.0295319 2.32175807 1.0224917 3.76401887l-.0006399 3.8460023c0 1.0871475.4505287 1.5637913.8749395 2.1514403.1469137.2089387.1795605.4603207-.0098033.6170265-.4733812.395031-1.3156755 1.1295885-1.7792625 1.5409402l-.0032625-.00654c-.1534312.137127-.3754335.1469205-.5484615.0555105-.7704712-.6398812-.9108525-.9369682-1.3319985-1.5474675-1.2732345 1.2993503-2.1775582 1.6878488-3.8262322 1.6878488-1.9555568 0-3.4736415-1.2046755-3.4736415-3.6172875 0-1.8837345 1.0185885-3.1667625 2.4746452-3.7935849 1.260174-.5550012 3.0198458-.6529405 4.3649048-.8063813v-.3003526c0-.5517363.0424417-1.2046769-.2840288-1.6813209-.280764-.42767772-.8227065-.60397167-1.3026165-.60397167-.8847352 0-1.6715265.45379342-1.8641452 1.39402747-.0391763.2089424-.1926158.4146185-.4048238.4244126l-2.2493782-.2415897c-.189354-.0424388-.4015583-.195882-.3460583-.4864382.515823-2.72929065 2.9839388-3.55199782 5.1908753-3.55199782zm-30.43028543 0c1.12958483 0 2.60522993.30035325 3.49649393 1.15570455 1.1295877 1.05449865 1.021851 2.46158527 1.021851 3.99273177v3.6172894c0 1.0871475.450531 1.5637913.8749425 2.1514403.1501755.2089387.1828222.4603207-.0065325.6170265-.4733813.395031-1.31567325 1.1295885-1.77926325 1.5409402l-.006525-.00654c-.15344175.137127-.375444.1469205-.54847275.0555105-.7704675-.6398812-.907587-.9369682-1.3319979-1.5474675-1.27323405 1.2993503-2.17428945 1.6878488-3.82623083 1.6878488-1.95229267 0-3.47364143-1.2046755-3.47364143-3.6172875 0-1.8837345 1.02185146-3.1667625 2.47464323-3.7935849 1.26017468-.5550012 3.0198492-.6529405 4.3649079-.8063813v-.3003526c0-.5517363.0424413-1.2046769-.28076452-1.6813209-.284031-.42767772-.8259696-.60397167-1.30261748-.60397167-.88473232 0-1.67479192.45379342-1.86740895 1.39402747-.0391773.2089424-.19261815.4146185-.40155802.4244126l-2.25264418-.2415897c-.18935311-.0424388-.39829428-.195882-.34605899-.4864382.51908787-2.72929065 2.98393699-3.55199782 5.19087724-3.55199782zm19.55556443.11426475c.9728812 0 2.037174.40155833 2.6868502 1.3026162.7345575 1.0022634.5843805 2.45832027.5843805 3.73482047l-.0032625 7.5186091c0 .2383222-.1991475.4309387-.447264.4309387h-2.3179402c-.231792-.0163215-.4178798-.2024092-.4178798-.4309387v-6.3139347c0-.5027637.0457028-1.7564094-.065295-2.2330573-.1730287-.7998498-.6921157-1.0251165-1.3646467-1.0251165-.5615288 0-1.149174.375441-1.3874978.9761476-.1853629.4672151-.2127298 1.1793219-.2157392 1.7907081l.0002687 6.8052528c0 .2383222-.1991467.4309387-.4472647.4309387h-2.3179365c-.235059-.0163215-.4178828-.2024092-.4178828-.4309387l-.0032625-6.3139347c0-1.3287331.2187323-3.2842909-1.4299395-3.2842909-1.5014382 0-1.5986937 1.544334-1.6031304 2.8575482l.0001599 6.7406774c0 .2383222-.1991475.4309387-.447264.4309387h-2.321205c-.2219985-.0163215-.3982927-.1828215-.4146172-.3950295v-11.9128947c0-.23832329.1991475-.42767752.447264-.42767752h2.164497c.225267.0097875.404823.18282278.4211482.3982929v1.5572649h.042441c.5647928-1.50502958 1.62582-2.20694055 3.0557603-2.20694055 1.452792 0 2.3603797.70191097 3.01332 2.20694055.5615287-1.50502958 1.8380265-2.20694055 3.205938-2.20694055zm46.5481222 0c1.0414403 0 2.0567633.3754413 2.7097035 1.4038218.6072338.95329305.6072338 2.55626307.6072338 3.70870077v7.4990232c-.0261165.2089387-.2187353.3754387-.4472618.3754387h-2.3277337c-.2122073-.0163215-.3885015-.1730272-.4113518-.3754387v-6.4706401c0-1.3026161.1501755-3.2092038-1.4527942-3.2092038-.564792 0-1.0838805.3787075-1.341792.9532932-.326469.7280304-.3689108 1.4527942-.3689108 2.2559106v6.4151401c-.0032625.2383222-.2056755.4309387-.453792.4309387h-2.3114122c-.231795-.0163215-.4178828-.2024092-.4178828-.4309387l-.0032625-11.91616415c.0195885-.21873517.2122073-.38849887.4472648-.38849887h2.1514402c.2024093.0097875.3689093.14691173.4146173.33299978v1.82170252h.0424387c.6496778-1.62908558 1.5605265-2.40608505 3.1634955-2.40608505zm-20.2705372.21873525c.244854 0 .440736.17629418.440736.4309404v1.45932195c-.0032625.2448522-.208941.56479297-.5745893 1.07082167l-3.953553 5.6446705c1.4691173-.0359093 3.019851.182823 4.3518495.933705.3003518.169764.3819698.4178812.4048223.662736v1.8184395c0 .2481165-.2742353.5386725-.5615288.3884977-2.3473215-1.2307935-5.465112-1.364646-8.06055.0130598-.2644402.1436475-.5419395-.143646-.5419395-.3917648v-1.7270265c0-.2774992.0032625-.7508835.2807618-1.1720295l4.5803782-6.56858077h-3.9862005c-.2448525 0-.4407345-.17302763-.4407345-.4276764v-1.70417415c0-.25791135.195882-.4309404.430941-.4309404zm-14.1426885 6.57511092c-1.6813215 0-3.4540538.3591168-3.4540538 2.3375256 0 1.0022632.5223525 1.681323 1.4136165 1.681323.6496748 0 1.2373208-.4015575 1.6062315-1.0545.4570583-.8031173.4342058-1.5572633.4342058-2.4615851zm-30.43028603 0c-1.67805847 0-3.45079095.3591168-3.45079095 2.3375256 0 1.0022632.51908663 1.681323 1.41035048 1.681323.65294055 0 1.23732165-.4015575 1.60623502-1.0545.45705608-.8031173.43420545-1.5572633.43420545-2.4615851zm51.60187853-4.36164155c-1.7107027 0-1.8184532 2.33099515-1.8184532 3.78378935 0 1.456057-.0228388 4.5640525 1.7988662 4.5640525 1.7988503 0 1.8837338-2.507289 1.8837338-4.035173 0-1.0055261-.0424418-2.2069366-.3460605-3.1602311-.2611763-.82923192-.7802618-1.15243775-1.5180863-1.15243775z" fill="#161637" fill-rule="evenodd" transform="translate(0 -7)"/></svg>