<svg height="21" viewBox="0 0 108 21" width="108" xmlns="http://www.w3.org/2000/svg"><path d="m6.88891109 20.6140819h-4.06548252v-10.1347372h-2.76948252v-3.29966438h2.76937463v-2.34794805c0-2.78232168 1.2248991-4.77778622 5.27937662-4.77778622.85752648 0 2.2038042.17284316 2.2038042.17284316v3.06392008h-1.41403397c-1.44079121 0-2.00334066.43825774-2.00334066 1.64988611v2.23908492h3.36342853l-.29950845 3.29966438h-3.06402797zm9.32835161-13.69808989c-.0592327 0-.1201918.00215784-.1805035.00366833-3.7697502 0-5.4945134 2.83562038-5.4945134 6.86085916 0 5.0707133 2.2372507 7.1001638 5.523968 7.1001638 1.8804515 0 3.1159241-.7914965 3.8668531-2.2685394v2.0033406h3.8668532v-13.43440158h-3.8668532v2.06602597c-.6131508-1.32923077-1.8831488-2.31536463-3.7158042-2.33111688zm.9832208 3.17450949c1.5833167 0 2.5336304 1.1043836 2.5336304 2.9828931l.0036683 1.9186454c0 1.2661138-.7849151 2.7473646-2.5372987 2.7473646-2.6940659 0-2.6221019-2.908987-2.6221019-3.8778581 0-3.2590969 1.4353966-3.771045 2.6221019-3.771045zm8.1610293 3.8084835c0-1.6325155-.0780762-6.97425373 6.8813963-6.97425373 2.7936503 0 3.9601798.88827572 3.9601798.88827572l-.9375824 2.90801601s-1.165019-.6415265-2.6830609-.6415265c-1.9443237 0-3.1849751 1.1271489-3.1849751 3.1103137l.0021579 1.422018c0 1.9055904 1.1970629 3.1776383 3.1868092 3.1776383 1.382961 0 2.6575984-.6475684 2.6575984-.6475684l.9352088 2.8472727s-1.0666214.8938861-3.9168072.8938861c-6.6265175 0-6.9007793-4.7925674-6.9007793-6.9840719zm33.5143473-6.97932466c3.7698582 0 5.5218102 2.83562038 5.5218102 6.86085916 0 5.0707133-2.2373586 7.1001638-5.5240759 7.1001638-1.8804515 0-3.2705335-.7913886-4.0214625-2.2685394v2.0033406l-3.8181938-.0015105v-20.15154843l4.053938-.35356243v8.95623177c.5850989-1.56691709 2.5079521-2.14543457 3.7880919-2.14543457zm-1.1365354 3.17084116c-1.5833167 0-2.6514486 1.1043836-2.6514486 2.9828931l-.0037819 1.9186454c-.0023679 1.2661138.739714 2.7473646 2.6552305 2.7473646 2.6940659 0 2.6221019-2.908987 2.6221019-3.8778581 0-3.2590969-1.4352887-3.771045-2.6221019-3.771045zm-14.5023177-3.15983617c-4.2757642 0-6.5330829 2.33133267-6.5330829 6.47417387v.7697023c0 5.3770189 3.169978 6.7613826 6.9492228 6.7613826 3.6734026 0 5.3361278-1.0274566 5.3361278-1.0274566l-.7585894-2.7361438s-1.9558681.8321718-4.0914845.8321718c-2.2139461 0-3.1660939-.5642757-3.4101459-2.6919081h8.5843277v-2.1950649c0-4.4939221-2.5334146-6.18685717-6.0764835-6.18685717zm.103037 2.73992008c1.4800639 0 2.4391168.90758839 2.3864655 3.01245559h-4.99001c.0865295-2.2153487 1.1207832-3.01234769 2.6035445-3.01234769zm29.1410109-2.75826173c-4.3908851 0-6.7024735 2.4743976-6.7024735 6.90865532 0 6.084036 3.9846713 7.0633726 6.7098102 7.0633726 3.9894186 0 6.6435644-2.1478081 6.6435644-7.0081318 0-5.05873728-2.9842957-6.96389612-6.6509011-6.96389612zm-.0552407 3.18918282c1.9307293 0 2.6957922 1.444999 2.6957922 3.0898142v1.4141418c0 1.9925515-1.0705055 3.145055-2.7031289 3.145055-1.5268891 0-2.599984-1.078058-2.599984-3.145055v-1.4141418c0-2.2044516 1.2769031-3.0898142 2.6073207-3.0898142zm14.7822977-3.18918282c-4.3908851 0-6.7024735 2.4743976-6.7024735 6.90865532 0 6.084036 3.9846713 7.0633726 6.7098102 7.0633726 3.9893106 0 6.6435644-2.1478081 6.6435644-7.0081318 0-5.05873728-2.9844036-6.96389612-6.6509011-6.96389612zm-.0552408 3.18918282c1.9307293 0 2.6956843 1.444999 2.6956843 3.0898142v1.4141418c0 1.9925515-1.0705054 3.145055-2.7030209 3.145055-1.5268891 0-2.5999841-1.078058-2.5999841-3.145055v-1.4141418c0-2.2044516 1.2769031-3.0898142 2.6073207-3.0898142zm8.2381019 10.5125754v-20.15165633l4.0656983-.35356243v13.50690506l4.0336547-6.43608788h4.293674l-4.207792 6.66589808 4.369846 6.7685035h-4.305866l-4.1835167-6.5721398v6.5721398z" fill="#161637"/></svg>