<svg height="22" viewBox="0 0 22 22" width="22" xmlns="http://www.w3.org/2000/svg" xmlns:xlink="http://www.w3.org/1999/xlink"><linearGradient id="a" x1="50%" x2="50%" y1="100%" y2="0%"><stop offset="0" stop-color="#0052cc"/><stop offset="1" stop-color="#2684ff"/></linearGradient><g fill="none" fill-rule="evenodd"><rect fill="url(#a)" fill-rule="nonzero" height="22" rx="4" width="22"/><path d="m9.3425 16.9475c-.00517848.2531684-.10717057.4947286-.285.675-.1819986.1788914-.42730531.2786315-.6825.2775095h-3.9975c-.25193447 0-.49344254-.1005927-.6708816-.27944s-.27611788-.421143-.2741482-.6730695v-11.895c-.00196968-.25192654.09670914-.49422224.2741482-.67306954s.41894713-.27943046.6708816-.27943046h3.9975c.52605122 0 .9525.42644878.9525.9525zm9.225-5.46c-.0011988.2540002-.103799.4970007-.285.675-.1775449.180129-.4222061.2779935-.675.27h-3.9975c-.2519265.0019995-.4942222-.0966793-.6730695-.2741184s-.2794305-.4189471-.2794305-.6708816v-6.435c0-.25261871.1003524-.49489081.2789808-.67351921s.4209005-.27898079.6735192-.27898079h3.9975c.5231199.00411918.9450162.42936384.945.9525z" fill="#fff"/></g></svg>