<svg height="24" viewBox="0 0 24 24" width="24" xmlns="http://www.w3.org/2000/svg" xmlns:xlink="http://www.w3.org/1999/xlink"><linearGradient id="a"><stop offset="0" stop-color="#0052cc"/><stop offset="1" stop-color="#2683ff"/></linearGradient><linearGradient id="b" x1="62.841551%" x2="40.820976%" xlink:href="#a" y1="47.759067%" y2="81.642328%"/><linearGradient id="c" x1="37.459728%" x2="59.34462%" xlink:href="#a" y1="51.752489%" y2="17.990441%"/><mask id="d" fill="#fff"><path d="m0 0h23.212v23.9996h-23.212z" fill="#fff" fill-rule="evenodd"/></mask><mask id="e" fill="#fff"><path d="m0 7.761 4.226 4.227 3.563-3.564c-2.322-2.324-2.333-6.087-.024-8.424z" fill="#fff" fill-rule="evenodd"/></mask><mask id="f" fill="#fff"><path d="m0 3.557c1.122 1.121 1.753 2.641 1.753 4.227 0 1.585-.631 3.105-1.753 4.226l7.785-7.783-4.226-4.227z" fill="#fff" fill-rule="evenodd"/></mask><g fill="none" fill-rule="evenodd"><path d="m11.6055 15.547-3.547-3.547 3.547-3.549 3.548 3.549zm11.329-4.219-10.328-10.328-1.001-1-11.328 11.328c-.37.371-.37.972 0 1.343l7.103 7.102 4.225 4.227 11.329-11.329c.37-.371.37-.972 0-1.343z" fill="#2684ff" mask="url(#d)" transform="translate(.4)"/><path d="m0 7.761 4.226 4.227 3.563-3.564c-2.322-2.324-2.333-6.087-.024-8.424z" fill="url(#b)" mask="url(#e)" transform="translate(4.2157 .0276)"/><path d="m0 3.557c1.122 1.121 1.753 2.641 1.753 4.227 0 1.585-.631 3.105-1.753 4.226l7.785-7.783-4.226-4.227z" fill="url(#c)" mask="url(#f)" transform="translate(12.0047 11.9896)"/></g></svg>