<svg height="32" viewBox="0 0 32 32" width="32" xmlns="http://www.w3.org/2000/svg"><g fill="none" fill-rule="evenodd"><path d="m0 0h32v32h-32z"/><path d="m11.5 6 .1166211.00672773c.4973387.05776511.8833789.48043643.8833789.99327227 0 .55228475-.4477153 1-1 1h-7.83333333l-.14333956.00623609c-.850658.07432949-1.52332711.80402857-1.52332711 1.69964626v17.58823525l.0061436.1476495c.07321422.8756716.79161532 1.5582329 1.66052307 1.5582329h22.66666663l.1433396-.0062361c.850658-.0743295 1.5233271-.8040286 1.5233271-1.6996463v-9.2941176l.0067277-.1166211c.0577651-.4973387.4804365-.8833789.9932723-.8833789.5522847 0 1 .4477153 1 1v9.2941176l-.0050725.1965218c-.1010319 1.9524622-1.6986862 3.5093606-3.6615942 3.5093606h-22.66666663l-.19503139-.0051466c-1.93730067-.1025029-3.47163528-1.723193-3.47163528-3.7007358v-17.58823525l.00507255-.19652175c.10103189-1.95246224 1.69868612-3.5093606 3.66159412-3.5093606zm5.2509775 7.5773254c.402928-.290829.968808-.2428718 1.316196.1302487.3763371.4042139.3537385 1.0369754-.0504754 1.4133125l-7.4715064 6.9562301-.0971165.0797732c-.402928.2908291-.96880798.2428718-1.31619604-.1302487-.37633706-.4042138-.35373844-1.0369754.05047545-1.4133125l7.47150639-6.9562301zm5.1865152-11.09702933c.2186836-.76006301 1.0121145-1.19893772 1.7721775-.98025411.4736724.13628394.8439702.50658177.9802541.98025411l.4785271 1.6631825c.4609495 1.60208914 1.7133979 2.8545375 3.315487 3.31548698l1.6631825.47852712c.760063.21868362 1.1989378 1.01211453.9802541 1.77217755-.1362839.47367238-.5065817.84397018-.9802541.98025408l-1.6631825.4785271c-1.6020891.4609495-2.8545375 1.7133979-3.315487 3.315487l-.4785271 1.6631825c-.2186836.760063-1.0121145 1.1989378-1.7721775.9802541-.4736724-.1362839-.8439702-.5065817-.9802541-.9802541l-.4785271-1.6631825c-.4609495-1.6020891-1.7133979-2.8545375-3.315487-3.315487l-1.6631825-.4785271c-.760063-.2186836-1.1989378-1.01211451-.9802541-1.77217752.1362839-.47367234.5065817-.84397017.9802541-.98025411l1.6631825-.47852712c1.6020891-.46094948 2.8545375-1.71339784 3.315487-3.31548698zm1.3752138 2.43237982-.0151956.05302743c-.710161 2.13417738-2.4279543 3.79005696-4.6010309 4.41528966l.21752-.06715116.0517033.01606428c1.9600345.65221384 3.5166421 2.1543289 4.2419515 4.0784739l.0898561.2533337.0151956.0530274.0171996-.0530274c.680571-2.0452533 2.2865543-3.6512366 4.3318076-4.3318076l.0520254-.0161976-.0520254-.0161976c-2.0452533-.68057096-3.6512366-2.28655425-4.3318076-4.33180758z" fill="#2c2c96" fill-rule="nonzero"/></g></svg>