<svg height="32" viewBox="0 0 32 32" width="32" xmlns="http://www.w3.org/2000/svg"><g fill="none" fill-rule="evenodd"><path d="m0 0h32v32h-32z"/><path d="m29.5 0c1.3807119 0 2.5 1.11928813 2.5 2.5v13c0 1.3807119-1.1192881 2.5-2.5 2.5h-5c-1.3807119 0-2.5-1.1192881-2.5-2.5v-5.5h-3.5013333l-.1438116.0061194c-.8029883.0686419-1.4434343.7067416-1.5160024 1.5084156l-.0068527.1521317.1691425 8.6471319-.0050657.1965803c-.0977078 1.8873009-1.5969887 3.3866771-3.4667114 3.4845385l-.1946987.0050826h-3.3346667v5.5c0 1.3807119-1.11928813 2.5-2.5 2.5h-5c-1.38071187 0-2.5-1.1192881-2.5-2.5v-13c0-1.3807119 1.11928813-2.5 2.5-2.5h5c1.38071187 0 2.5 1.1192881 2.5 2.5v5.5h3.3346667l.143775-.0061174c.802805-.0686196 1.4434451-.7065245 1.5160366-1.5083792l.006855-.1521701-.1691425-8.6471319.0050641-.1965289c.0976752-1.88683726 1.5964754-3.38669423 3.4666616-3.48458821l.1947502-.00508429h3.5013333v-5.5c0-1.38071187 1.1192881-2.5 2.5-2.5zm-22 16h-5c-.27614237 0-.5.2238576-.5.5v13c0 .2761424.22385763.5.5.5h5c.27614237 0 .5-.2238576.5-.5v-13c0-.2761424-.22385763-.5-.5-.5zm22-14h-5c-.2761424 0-.5.22385763-.5.5v13c0 .2761424.2238576.5.5.5h5c.2761424 0 .5-.2238576.5-.5v-13c0-.27614237-.2238576-.5-.5-.5z" fill="#2c2c96" fill-rule="nonzero"/></g></svg>