<svg height="24" viewBox="0 0 111 24" width="111" xmlns="http://www.w3.org/2000/svg"><path d="m444.255082 18.4693953v11.2906047h-11.255082v-11.2906047zm12.430164 0v11.2906047h-11.255082v-11.2906047zm34.260984-3.9415813c.440655 0 .899672.0552558 1.340327.1473488.477377.092093.82623.2394419 1.138361.3683721l.018361.0184186v2.3391628l-.091804-.0736744c-.716065-.515721-1.505573-.7735814-2.276721-.7735814-.918033 0-1.67082.3131162-2.24.9209302s-.84459 1.4366512-.84459 2.4865116c0 1.0130233.27541 1.8234419.826229 2.4128372.532459.607814 1.285246.8840931 2.24.8840931.330492 0 .716066-.0736745 1.138361-.2210233.403935-.1289302.807869-.3499535 1.156721-.607814l.091804-.0736744v2.2102326l-.018361.0184186c-.771148.4420465-1.744262.6814884-2.882623.6814884-.991475 0-1.872787-.2210233-2.625574-.6446512-.789508-.4236279-1.377049-1.0498605-1.799344-1.8234419-.422295-.792-.642623-1.6576744-.642623-2.6338604 0-1.1235349.220328-2.099721.660984-2.9469768.422295-.8288372 1.083278-1.4919069 1.909508-1.9707907.826229-.4788837 1.817705-.7183255 2.900984-.7183255zm15.716721.0184186c1.579016 0 2.845901.4604651 3.708852 1.3998139.899672.9393488 1.340328 2.2286512 1.340328 3.8494884 0 1.6392558-.459016 2.9653953-1.41377 3.96-.936394.9946046-2.24 1.491907-3.874099 1.491907-1.560655 0-2.80918-.4788838-3.727213-1.399814-.918033-.9393488-1.39541-2.2286512-1.39541-3.8126512 0-1.6945116.459017-3.0390697 1.413771-4.0152558.936393-.976186 2.276721-1.4734883 3.947541-1.4734883zm19.407213 0c1.579016 0 2.845902.4604651 3.708852 1.3998139.899673.9393488 1.340328 2.2286512 1.340328 3.8494884 0 1.6392558-.459016 2.9653953-1.41377 3.96-.936394.9946046-2.24 1.491907-3.874099 1.491907-1.560655 0-2.80918-.4788838-3.727213-1.399814-.918032-.9393488-1.39541-2.2286512-1.39541-3.8126512 0-1.6945116.477378-3.0390697 1.413771-4.0152558.936393-.976186 2.276721-1.4734883 3.947541-1.4734883zm-9.253771-.0184186c.330492 0 .734427.0368372 1.175082.1105116.440656.092093.807869.2026046 1.083279.3131163l.055082.0184186v2.2470697l-.091803-.0736744c-.293771-.2210232-.660984-.3867907-1.064918-.4973023-.403935-.1105116-.82623-.1841861-1.230164-.1841861-.459017 0-.771148.0920931-1.046558.2762791-.275409.1841861-.385573.4604651-.385573.7367442 0 .3315349.091803.5893953.27541.7735814.220327.2026046.697704.4420465 1.450491.7551628.954754.3683721 1.615738.8288372 2.148197 1.2708837.403934.4604651.587541 1.0682791.587541 1.7497674 0 .9761861-.385574 1.7313489-1.12 2.3207442-.716066.607814-1.725902.8840931-2.956066.8840931-.403934 0-.86295-.0736745-1.377049-.1657675-.514098-.1289302-.936393-.2394418-1.285246-.4052093l-.055082-.0184186v-2.3391628l.091804.0736744c.385573.2762791.84459.515721 1.340328.6814884.495737.1657674.918032.2394419 1.321967.2394419 1.046557 0 1.560655-.3315349 1.560655-1.0130233 0-.2394418-.055081-.4236279-.146885-.5709767-.128524-.1289303-.29377-.2946977-.550819-.4420465-.25705-.1473489-.679345-.3315349-1.230164-.5709768-.660984-.2762791-1.138361-.5709767-1.468853-.8288372-.330492-.2762791-.56918-.607814-.734426-.9577674-.165246-.3499535-.238689-.7735814-.238689-1.2524652 0-.9025116.348853-1.676093 1.083279-2.2470697.734426-.607814 1.67082-.884093 2.80918-.884093zm19.939673-4.82567447c.56918 0 1.009836.07367442 1.340327.18418605l.055082.01841861v2.08130231l-.091803-.0552558c-.385574-.1657674-.734426-.2394419-1.064918-.2394419-.477377 0-.862951.1473489-1.12.4420465-.257049.2946977-.403934.7551628-.403934 1.3445582v1.2893023h3.598688v-2.3023256l.055082-.0184186 2.276721-.6814883.073443-.0184186v3.0206511h2.405246v1.9707907h-2.441967v4.8256744c0 .6262326.110164 1.0498605.330492 1.307721.238688.276279.56918.3867907 1.046557.3867907.128525 0 .29377-.0184186.477377-.0736745.220328-.0552558.348852-.1289302.495738-.2210232l.091803-.0736744v1.9707907l-.018361.0184186c-.146885.0736744-.403934.1657674-.752787.2394418-.330491.0552558-.679344.1105117-1.009836.1105117-2.019672 0-3.029508-1.0866977-3.029508-3.2416745v-5.2493023h-3.598688v8.2331163h-2.405246v-8.2515349h-1.67082v-1.9523721h1.67082v-1.4182325c0-.7183256.165246-1.3445582.477377-1.8971163.312131-.5709768.734426-.9946047 1.303606-1.307721.569181-.27627902 1.193443-.44204647 1.909509-.44204647zm-57.634099 1.04986047v14.2191628h-2.441967v-9.0251163c.018361-.5709767.055082-1.5103256.110164-2.560186h-.055082c-.091803.4052093-.183607.884093-.27541 1.1235348l-4.222951 10.4801861h-1.615737l-4.259673-10.388093c-.091803-.2578605-.220327-.6630698-.330491-1.2156279h-.055082c.01836.2210232.055082.5157209.073442.9025116.013115.5525581.016862 1.0299383.017933 1.4589898l.000428 9.2790567h-2.295082v-14.2375814h3.470164l3.543607 8.9330233c.330491.7735814.532459 1.4182325.642622 1.8418604h.055082l.660984-1.8786976 3.63541-8.9330233zm4.700328 4.0152558v10.203907h-2.386885v-10.203907zm16.340984-.1657674c.403934 0 .734426.0552558.899672.1657674l.055082.0184186v2.3944186l-.091803-.0736744c-.128525-.092093-.312132-.1657674-.569181-.2394419-.27541-.0368372-.495738-.092093-.716065-.092093-.624263 0-1.138361.2762791-1.542295.8288372-.403935.5341396-.587541 1.2708838-.587541 2.1549768v5.2124651h-2.386886v-10.203907h2.386886v1.7866047h.01836c.238689-.5709768.514099-1.0498605.918033-1.3813954.477377-.3867907 1.028197-.5709767 1.615738-.5709767zm6.389508 1.9155349c-.862951 0-1.542295.2946976-2.038033.884093-.477377.5893953-.734426 1.4182325-.734426 2.5049302 0 1.0498605.238688 1.8786977.734426 2.4496744.495738.607814 1.193443.8840931 2.056394.8840931.86295 0 1.560655-.2762791 2.001311-.8472559.459016-.5709767.660984-1.4366511.697705-2.5417674 0-1.0866977-.257049-1.9155349-.734426-2.4865116-.477377-.5709768-1.138361-.8472558-1.982951-.8472558zm19.388852 0c-.86295 0-1.542295.2946976-2.038032.884093-.477377.5893953-.734427 1.4182325-.734427 2.5049302 0 1.0498605.238689 1.8786977.734427 2.4496744.495737.607814 1.175082.8840931 2.056393.8840931.862951 0 1.560656-.2762791 2.001311-.8472559.459017-.5709767.697705-1.4366511.697705-2.5417674 0-1.0866977-.257049-1.9155349-.734426-2.4865116-.477377-.5709768-1.156721-.8472558-1.982951-.8472558zm-81.686557-10.5170233v11.2906047h-11.255082v-11.2906047zm12.430164 0v11.2906047h-11.255082v-11.2906047zm25.961967 4.4573023c.422295 0 .771148.1473489 1.009836.4052093.27541.2762791.422295.607814.422295.9946047s-.146885.7183256-.422295.976186c-.257049.2394419-.605901.3867907-1.009836.3867907-.403934 0-.734426-.1289302-1.009836-.3867907-.27541-.2578604-.422295-.5893953-.422295-.976186 0-.4052093.146885-.7367442.422295-.9946047.27541-.2578604.605902-.4052093 1.009836-.4052093z" fill="#161637" transform="translate(-433 -6)"/></svg>