<svg height="21" viewBox="0 0 74 21" width="74" xmlns="http://www.w3.org/2000/svg"><path d="m138.946206 8 4.031455 11.4386084v-11.4386084h3.120554v18.8605439c-1.104755.1970529-2.228947.2561323-3.391866.4134832l-3.547066-10.5524169v11.0053106c-1.104756.118086-2.11262.2755826-3.159283.4330792v-20.16zm62.895766 0 2.035163 5.2959502 2.170927-5.2959502h3.391938l-3.934706 9.5878414 3.934706 10.5721586c-1.163063-.1574966-2.325983-.3740726-3.488974-.5709798l-2.228875-5.8273736-2.267532 5.3550296c-1.124406-.1970529-2.209798-.2561323-3.333774-.4136289l3.992726-9.2334376-3.60523-9.4696097zm-44.153074 0v3.1500046h-5.485194v4.2328117c1.201791 0 3.043098-.0590794 4.147854-.0590794v3.1499317c-1.376211 0-2.984863 0-4.147854.0590794v4.6857056c1.822015-.118086 3.643958-.2757283 5.485194-.3348077v3.0316999l-8.586456.6892115v-18.6045573zm38.163913 0v18.5455507c-1.007863-.1179403-2.054527-.1770197-3.043026-.236172v-18.3093787zm-10.931659 0v14.7065533c1.763851.0392648 3.546923.1773111 5.272046.2755826v3.1106668c-2.771643-.1773112-5.543358-.3542581-8.373164-.4134832v-17.6793195zm-15.699593 0-.000143 3.1500774h-3.217447v14.4899772c-1.046663 0-2.093327 0-3.101047.0392649v-14.5292421h-3.217446v-3.1500774zm10.660204 0v3.1500046h-5.620957v4.0163086h4.244817v3.1499317h-4.244817v7.1466443h-3.043242v-17.4628892z" fill="#161637" transform="translate(-136 -8)"/></svg>