<svg height="21" viewBox="0 0 22 21" width="22" xmlns="http://www.w3.org/2000/svg"><g fill="none" fill-rule="evenodd"><path d="m-1-1h24v24h-24z"/><g fill-rule="nonzero"><path d="m3.71875 0h13.5625c2.05625 0 3.71875 1.6625 3.71875 3.71875v13.0375c0 2.05625-1.6625 3.71875-3.71875 3.71875h-13.5625c-2.05625 0-3.71875-1.6625-3.71875-3.71875v-13.0375c0-2.05625 1.6625-3.71875 3.71875-3.71875z" fill="#001e36" transform="translate(.5 .5)"/><g fill="#31a8ff" transform="translate(5.225 5.6625)"><path d="m0 9.19625v-9.00375c0-.06125.02625-.09625.0875-.09625.14875 0 .28875 0 .49-.00875.21-.00875.42875-.00875.665-.0175s.49-.00875.76125-.0175.53375-.00875.79625-.00875c.7175 0 1.3125.0875 1.8025.27125.4375.14875.84.39375 1.1725.7175.28.28.49875.62125.63875.9975.13125.3675.20125.74375.20125 1.1375 0 .7525-.175 1.37375-.525 1.86375s-.84.8575-1.40875 1.0675c-.595.21875-1.25125.2975-1.96875.2975-.21 0-.35 0-.4375-.00875s-.21-.00875-.37625-.00875v2.80875c.00875.06125-.035.11375-.09625.1225-.00875 0-.0175 0-.035 0h-1.6625c-.07 0-.105-.035-.105-.11375zm1.9075-7.41125v2.94c.1225.00875.23625.0175.34125.0175h.46375c.34125 0 .6825-.0525 1.00625-.1575.28-.07875.525-.245.7175-.46375.18375-.21875.27125-.51625.27125-.90125.00875-.27125-.06125-.5425-.20125-.77875-.14875-.2275-.35875-.4025-.6125-.49875-.32375-.13125-.67375-.18375-1.0325-.175-.2275 0-.42875 0-.595.00875-.175-.00875-.2975 0-.35875.00875z"/><path d="m12.075 4.19125c-.2625-.14-.5425-.23625-.84-.2975-.32375-.07-.6475-.11375-.98-.11375-.175-.00875-.35875.0175-.525.06125-.11375.02625-.21.0875-.27125.175-.04375.07-.07.1575-.07.23625s.035.1575.0875.2275c.07875.09625.18375.175.2975.23625.20125.105.41125.20125.62125.28875.4725.1575.9275.37625 1.3475.63875.28875.18375.525.42875.69125.72625.14.28.21.58625.20125.90125.00875.41125-.11375.8225-.34125 1.16375-.245.35-.58625.62125-.98.77875-.42875.18375-.95375.28-1.58375.28-.4025 0-.79625-.035-1.19-.11375-.30625-.0525-.6125-.14875-.8925-.28-.06125-.035-.105-.09625-.09625-.16625v-1.5225c0-.02625.00875-.06125.035-.07875s.0525-.00875.07875.00875c.34125.20125.7.34125 1.085.42875.3325.0875.6825.13125 1.0325.13125.3325 0 .56875-.04375.72625-.1225.14-.06125.23625-.21.23625-.3675 0-.1225-.07-.23625-.21-.35s-.42875-.245-.8575-.41125c-.44625-.1575-.8575-.3675-1.2425-.63-.27125-.1925-.49875-.44625-.665-.74375-.14-.28-.21-.58625-.20125-.8925 0-.37625.105-.735.2975-1.05875.21875-.35.5425-.63.91875-.805.41125-.21.9275-.30625 1.54875-.30625.35875 0 .72625.02625 1.085.07875.2625.035.51625.105.7525.20125.035.00875.07.04375.0875.07875.00875.035.0175.07.0175.105v1.42625c0 .035-.0175.07-.04375.0875-.07875.0175-.1225.0175-.1575 0z"/></g></g></g></svg>