<svg height="21" viewBox="0 0 22 21" width="22" xmlns="http://www.w3.org/2000/svg"><g fill="none" fill-rule="evenodd"><path d="m-1-2h24v24h-24z"/><g fill-rule="nonzero" transform="translate(.5)"><path d="m3.71895112 0h13.56323348c2.0563612 0 3.7189511 1.66362968 3.7189511 3.72127692v13.04635908c0 2.0576472-1.6625899 3.7212769-3.7189511 3.7212769h-13.56323348c-2.05636121 0-3.71895112-1.6636297-3.71895112-3.7212769v-13.04635908c0-2.05764724 1.66258991-3.72127692 3.71895112-3.72127692z" fill="#470137"/><g fill="#ff61f6"><path d="m11.0500035 5.3849066-2.62678374 4.33419312 2.80190264 4.59687148c.0175119.0350238.0262678.0700476.0175119.1050714-.008756.0350237-.0437798.0087559-.0963154.0175119h-2.00511159c-.14009514 0-.23641054-.008756-.29770216-.0963155-.18387486-.3677497-.37650566-.7267434-.56038052-1.0944932-.18387486-.3589937-.38526161-.7267435-.59540431-1.1032491-.2101427-.3765057-.42028539-.7530114-.63042809-1.138273h-.01751189c-.18387486.3765057-.38526161.7530114-.58664836 1.129517-.20138675.3765057-.4027735.7530114-.59540431 1.1207611-.20138675.3677497-.4027735.7442554-.60416025 1.1032491-.03502379.0875595-.10507135.0963154-.20138675.0963154h-1.92630806c-.03502378 0-.06129162.0175119-.06129162-.0262678-.00875594-.0350238 0-.0700476.01751189-.0963154l2.72309912-4.4655323-2.65305155-4.49180014c-.02626784-.03502379-.03502378-.07004757-.01751189-.08755946.01751189-.02626784.05253567-.03502378.08755946-.03502378h1.98759967c.04377973 0 .08755946.00875594.12258324.01751189.03502378.01751189.06129162.04377973.08755946.07880351.16636296.37650566.35899377.75301133.56038052 1.12951699.2101427.37650567.41152945.74425539.63042809 1.11200511.2101427.36774972.4027735.73549944.58664836 1.1120051h.01751189c.18387486-.38526161.37650567-.76176727.56913647-1.12951699.19263081-.36774972.39401756-.73549944.59540431-1.10324916s.39401756-.74425539.58664836-1.10324916c.00875595-.03502378.02626784-.07004756.05253568-.08755946.03502378-.01751189.07004756-.02626783.11382729-.01751189h1.84750454c.0437797-.00875594.0875595.01751189.0963154.06129162.0087559.00875595-.0087559.04377973-.0262678.06129162z"/><path d="m15.0952504 14.6224293c-.64794.008756-1.29588-.1225832-1.8825283-.3940175-.5516246-.2539225-1.0069338-.6742079-1.3221478-1.1908087-.32397-.5341126-.4815771-1.1995645-.4815771-1.9963556-.0087559-.64794.1576071-1.287124.4815771-1.84750452.3327259-.56913647.8143029-1.04195754 1.3921953-1.35717158.6129162-.34148189 1.3484157-.50784485 2.2152543-.50784485.0437797 0 .1050713 0 .1838748.00875594.0788036.00875595.166363.00875595.2714344.01751189v-2.76687884c0-.06129162.0262678-.0963154.0875594-.0963154h1.777457c.0437797-.00875594.0788035.02626784.0875594.06129162v.01751189 8.33566035c0 .157607.008756.3327259.0175119.5253567.0175119.1838749.0262679.3589938.0350238.5078448 0 .0612917-.0262678.1138273-.0875594.1400952-.4553092.1926308-.9368862.3327259-1.4272192.4202854-.4465532.0788035-.8931064.1225832-1.3484156.1225832zm.8580827-1.7511891v-3.85261613c-.0788036-.0175119-.1576071-.03502379-.2364106-.04377973-.0963154-.00875595-.1926308-.01751189-.2889462-.01751189-.3414819 0-.6829637.07004756-.9894218.22765458-.2977022.14885108-.5516246.36774972-.7442554.64793999-.1926308.28019028-.2889462.65669588-.2889462 1.11200508-.008756.3064581.0437797.6129162.148851.9018624.0875595.2364106.2188987.4465533.3940176.6216722.166363.157607.3677497.2801902.5954043.3502378.2364105.0788035.481577.1138273.7267435.1138273.1313392 0 .2539224-.008756.3677497-.0175119.1138273.0087559.2101427-.0087559.3152141-.0437797z"/></g></g></g></svg>