<svg height="26" viewBox="0 0 92 26" width="92" xmlns="http://www.w3.org/2000/svg"><g fill="#161637"><path d="m0 6.20123848h5.46478958l3.18207865 8.14103332 3.22338487-8.14103332h5.3208669l-8.0120474 19.27247312h-5.35458747l2.19316891-5.1069012z"/><path d="m22.7340714 5.8771499c-4.1059531 0-6.7016237 3.68239895-6.7016237 7.3494828 0 4.1265464 2.8458308 7.3981613 6.6237292 7.3981613 2.8181683 0 3.8807579-1.7170134 3.8807579-1.7170134v1.3375221h4.7663464v-14.04397917h-4.7663464v1.27672532s-1.1855051-1.60089895-3.8028634-1.60089895zm1.0138261 4.5131826c1.8945196 0 2.8721602 1.499082 2.8721602 2.85173 0 1.456549-1.0473975 2.8859346-2.8721602 2.8859346-1.5123515 0-2.879041-1.235919-2.879041-2.8239463 0-1.6104977 1.0993062-2.9137183 2.879041-2.9137183z"/><path d="m32.9447869 20.2452176v-20.2452176h4.9853064v7.52667414s1.1841337-1.64778665 3.6641343-1.64778665c3.0335594 0 4.8108918 2.26024975 4.8108918 5.49004861v8.8762815h-4.9488328v-7.6603523c0-1.093035-.5206471-2.1489477-1.7000072-2.1489477-1.2005236 0-1.8261861 1.0719143-1.8261861 2.1489477v7.6603523z"/><path d="m54.9048918 5.87881215c-4.7020853 0-7.5019508 3.57547377-7.5019508 7.40624575 0 4.3594823 3.3900021 7.3397361 7.5197571 7.3397361 4.002745 0 7.5052774-2.845006 7.5052774-7.2665979 0-4.83802298-3.6672582-7.47938395-7.5230837-7.47938395zm.0448994 4.55284985c1.6609448 0 2.8101709 1.3833864 2.8101709 2.858612 0 1.2582554-1.0708706 2.8101824-2.8101709 2.8101824-1.5937177 0-2.7897489-1.2784039-2.7897489-2.8239464 0-1.4888562.9943811-2.844848 2.7897489-2.844848z"/><path d="m70.7332564 5.87881215c-4.7020811 0-7.5019498 3.57547377-7.5019498 7.40624575 0 4.3594823 3.3900035 7.3397361 7.5197579 7.3397361 4.0027453 0 7.5052777-2.845006 7.5052777-7.2665979 0-4.83802298-3.6672537-7.47938395-7.5230858-7.47938395zm.0448995 4.55284985c1.6609409 0 2.8101719 1.3833864 2.8101719 2.858612 0 1.2582554-1.0708751 2.8101824-2.8101719 2.8101824-1.5937212 0-2.7897494-1.2784039-2.7897494-2.8239464 0-1.4888562.9943808-2.844848 2.7897494-2.844848z"/><circle cx="82.190108" cy="17.232947" r="3.310432"/><path d="m86.5883191 12.7064581h-5.9596403l5.2892793-12.7064581h5.937388z"/></g></svg>